<svg width="4" height="19" viewBox="0 0 4 19" fill="none" xmlns="http://www.w3.org/2000/svg">
<path fill-rule="evenodd" clip-rule="evenodd" d="M0 2.5C0 1.39543 0.89543 0.5 2 0.5C3.10457 0.5 4 1.39543 4 2.5C4 3.60457 3.10457 4.5 2 4.5C0.89543 4.5 0 3.60457 0 2.5ZM0 9.5C0 8.39543 0.89543 7.5 2 7.5C3.10457 7.5 4 8.39543 4 9.5C4 10.6046 3.10457 11.5 2 11.5C0.89543 11.5 0 10.6046 0 9.5ZM2 14.5C0.89543 14.5 0 15.3954 0 16.5C0 17.6046 0.89543 18.5 2 18.5C3.10457 18.5 4 17.6046 4 16.5C4 15.3954 3.10457 14.5 2 14.5Z" fill="black"/>
</svg>
